<svg width="15" height="15" viewBox="0 0 15 15" fill="none" xmlns="http://www.w3.org/2000/svg">
<path fill-rule="evenodd" clip-rule="evenodd" d="M11.0416 0.416626C11.4328 0.416626 11.75 0.733758 11.75 1.12496V1.83329H12.4583C13.6319 1.83329 14.5833 2.78469 14.5833 3.95829V5.37496C14.5833 5.76616 14.2662 6.08329 13.875 6.08329C13.4838 6.08329 13.1666 5.76616 13.1666 5.37496V3.95829C13.1666 3.56709 12.8495 3.24996 12.4583 3.24996H11.75V3.95829C11.75 4.34949 11.4328 4.66663 11.0416 4.66663C10.6504 4.66663 10.3333 4.34949 10.3333 3.95829V3.24996H4.66663V3.95829C4.66663 4.34949 4.34949 4.66663 3.95829 4.66663C3.56709 4.66663 3.24996 4.34949 3.24996 3.95829V3.24996H2.54163C2.15042 3.24996 1.83329 3.56709 1.83329 3.95829V6.08329H5.37496C5.76616 6.08329 6.08329 6.40042 6.08329 6.79163C6.08329 7.18283 5.76616 7.49996 5.37496 7.49996H1.83329V12.4583C1.83329 12.8495 2.15042 13.1666 2.54163 13.1666H5.37496C5.76616 13.1666 6.08329 13.4838 6.08329 13.875C6.08329 14.2662 5.76616 14.5833 5.37496 14.5833H2.54163C1.36802 14.5833 0.416626 13.6319 0.416626 12.4583V3.95829C0.416626 2.78469 1.36802 1.83329 2.54163 1.83329H3.24996V1.12496C3.24996 0.733758 3.56709 0.416626 3.95829 0.416626C4.34949 0.416626 4.66663 0.733758 4.66663 1.12496V1.83329H10.3333V1.12496C10.3333 0.733758 10.6504 0.416626 11.0416 0.416626ZM10.1259 9.12416L11.7501 10.7477L13.3742 9.12416C13.6295 8.86881 14.0313 8.84917 14.3092 9.06523L14.3759 9.12416C14.6313 9.3795 14.6509 9.78129 14.4348 10.0592L14.3759 10.1259L12.7523 11.75L14.3759 13.3742C14.6525 13.6508 14.6525 14.0993 14.3759 14.3759C14.0993 14.6525 13.6508 14.6525 13.3742 14.3759L11.7501 12.7523L10.1259 14.3759C9.87058 14.6312 9.46879 14.6509 9.19092 14.4348L9.12418 14.3759C8.86884 14.1205 8.8492 13.7188 9.06526 13.4409L9.12418 13.3742L10.7478 11.75L9.12418 10.1259C8.84756 9.84927 8.84756 9.40078 9.12418 9.12416C9.40081 8.84754 9.8493 8.84754 10.1259 9.12416Z" fill="#DA1C1C"/>
</svg>
